<svg xmlns="http://www.w3.org/2000/svg" xmlns:xlink="http://www.w3.org/1999/xlink" version="1.1" x="0px" y="0px" viewBox="0 0 100 125" enable-background="new 0 0 100 100" xml:space="preserve"><path fill-rule="evenodd" clip-rule="evenodd" d="M64.274,27.414L43.2,50l21.074,22.586c1.414,1.451,1.441,3.776,0.027,5.227  c-1.414,1.451-3.681,1.424-5.095-0.027L35.753,52.652c-0.018-0.017-0.038-0.028-0.055-0.046c-0.679-0.696-1.016-1.594-1.037-2.5  c-0.001-0.035-0.009-0.071-0.009-0.106c0-0.036,0.008-0.07,0.009-0.106c0.021-0.906,0.359-1.804,1.037-2.5  c0.017-0.018,0.037-0.029,0.055-0.046l23.452-25.134c1.414-1.451,3.681-1.478,5.095-0.027  C65.715,23.638,65.688,25.963,64.274,27.414z"/><text x="0" y="115" fill="#000000" font-size="5px" font-weight="bold" font-family="'Helvetica Neue', Helvetica, Arial-Unicode, Arial, Sans-serif"></text><text x="0" y="120" fill="#000000" font-size="5px" font-weight="bold" font-family="'Helvetica Neue', Helvetica, Arial-Unicode, Arial, Sans-serif"></text></svg>